<?xml version="1.0" encoding="UTF-8"?>
<svg id="Livello_1" xmlns="http://www.w3.org/2000/svg" version="1.1" viewBox="0 0 54.8 55.6">
  <!-- Generator: Adobe Illustrator 30.0.0, SVG Export Plug-In . SVG Version: 2.1.1 Build 123)  -->
  <defs>
    <style>
      .st0 {
        fill-rule: evenodd;
      }

      .st0, .st1 {
        fill: red;
      }
    </style>
  </defs>
  <path class="st0" d="M49.4,5.5c.1,0,.2-.2.2-.3.4-.9,1.1-1.7,1.9-2.3.9-.7,2-1.2,3.3-1.4,0,.2-.2.3-.3.4-.8.7-1.6,1.6-2.2,2.6-.7,1.2-1.2,2.5-1.5,4.1,1.4,0,2.1-.8,3.1-1.2-.2,1.8-1,3.1-2.2,3.9-.4.3-.9.6-1.3.6-.2,0-.5-.1-.8-.1-.8-.2-1.6-.3-2.4-.3-1.2,0-2.3,0-3.2.4-.8-2.4,0-5.1,1.2-6.4.6-.7,1.3-1.3,1.8-2.2.5-.9.7-2,.8-3.2,0,0,0,0,0,0,.2,0,.5.3.7.5.5.6,1,2,1,3.2,0,.6,0,1.3-.2,1.9h0Z"/>
  <path class="st1" d="M41.6,12.6s.2,0,.2,0c3.3.4,7.3.2,10.6,0v1.5c-1.5,0-2.7,0-3.2.9-.3.5-.5,1.6-.5,2.7v21.8c0,4.2-.1,8-1.6,10.8-.3.7-.7,1.3-1.2,1.9-.4.6-.9,1.1-1.4,1.7-.7.7-1.5,1.5-2.7,1.8-.4,0-1,.2-1.3,0-.3-.3-.2-1.4-.2-2,0-.5.2-1.5.6-1.6.3,0,.7.3,1.1.3.5.1,1.2.2,1.7,0,1.4-.5,1.5-2.9,1.5-5v-27.7c0-2,.2-4.3-.9-5-.7-.4-1.6-.4-2.7-.5v-1.4h0Z"/>
  <path class="st1" d="M42.6,16.3c.3,1.1.4,2.6.2,3.9-.5,2.3-1.8,4-3.6,5.1-1.7,1-4.3,1.7-6.9,1,0,0-.1-.2-.2-.3,0-.3-.2-.7-.3-1h0c1,.3,1.9.5,2.9.4,2.8-.3,4.6-2.7,4.6-5.9,0-2.5-1.2-4.1-3-4.8-1.8-.7-4.5-.7-6.5,0-.2,1.7-.2,3.7-.2,5.6v14.4c0,1,0,2,.3,2.6.5.9,2,.6,3.1.7v1.3c-3-.2-7.1-.2-10.1,0v-1.3c.7,0,2.4,0,2.9-.5.4-.4.4-1.5.4-2.6v-17.9c0-.9,0-2.2-.3-2.6-.5-.6-2-.5-3-.6,0-.3,0-.8,0-1.2,2.7.2,5.2.1,7.9,0,5-.2,10.4-.3,11.7,3.8M21.7,37.7c.2-.6.6-1.2.9-1.8,0,0,.1-.2,0-.2-.1,0-.2-.1-.3-.2-1.6,1-3.5,1.8-5.9,2-2.5.2-4.9-.2-6.6-1.2-3.4-1.8-5.6-5.3-6-10.2-.4-5.6,1.4-9.6,4.7-11.4,1.6-.9,4.1-1.4,6.6-1,2,.3,3.5,1.1,4.9,2.1.2.1.5.3.5.5,0,.2,0,.6,0,.8,0,.8,0,1.5.2,2.3h1c0-2.3.4-4.1.9-5.8-2.6-1-5.6-1.8-9.2-1.6-.6,0-1.3,0-1.9.2C5.3,13,1.2,16.8.2,23.1c-.4,2.5-.2,5.2.5,7.4,1.2,4.1,4.1,6.9,7.9,8.3,2,.7,4.3,1,7,.8,2.4-.2,4.4-.8,6.1-1.9"/>
</svg>